<svg width="24" height="24" viewBox="0 0 24 24" fill="none" xmlns="http://www.w3.org/2000/svg">
<path fill-rule="evenodd" clip-rule="evenodd" d="M12.4946 11.5012H10.6586L10.1482 10H10.1562C10.4373 10 10.7104 9.87099 10.9097 9.63643C11.1091 9.40188 11.2187 9.08522 11.2187 8.7498C11.2187 8.41673 11.1091 8.10008 10.9097 7.86552C10.7104 7.63096 10.4413 7.50195 10.1562 7.50195H9.30691C9.02581 7.50195 8.75469 7.63096 8.55533 7.86552C8.35597 8.10008 8.24433 8.41673 8.24433 8.7498C8.24433 9.08522 8.35597 9.40188 8.55533 9.63643C8.73874 9.84988 8.97597 9.97654 9.23115 10L9.86312 11.86L8.90819 12.8452C8.38986 12.3198 7.71005 12.0008 6.97442 12.0008C5.3337 12.0008 4 13.57 4 15.5004C4 17.4308 5.3337 19 6.97442 19C8.4696 19 9.7116 17.6959 9.91894 16H10.4452C10.6207 16.5817 11.0912 17.0016 11.6494 17.0016C12.2056 17.0016 12.6761 16.5817 12.8515 16H13.7725C13.7725 16.2744 13.9639 16.4996 14.1992 16.4996H14.233C14.4364 17.921 15.485 19 16.7489 19C18.0109 19 19.0595 17.921 19.2628 16.4996H19.2967C19.532 16.4996 19.7234 16.2744 19.7234 16C19.7234 14.0696 18.3877 12.5004 16.7489 12.5004C15.4013 12.5004 14.2629 13.5559 13.8961 15.0008H13.2203C13.5831 13.1407 15.0225 11.7498 16.7489 11.7498C18.7405 11.7498 20.3593 13.6099 20.3593 15.9062C20.3593 15.9367 20.3593 15.9695 20.3513 16H20.5726C20.6922 16 20.8099 15.9414 20.8916 15.8358C20.9713 15.7303 21.0112 15.5895 20.9973 15.4464C20.9973 15.4464 20.8318 13.7248 20.2158 12.3503C19.7533 11.3206 19.0376 10.502 18.0228 10.502H14.9627C14.875 10.061 14.7255 9.37607 14.5759 9.02658C14.4364 8.69586 14.253 8.50117 13.9858 8.39093V10.502H13.3479V8.00156H17.5982C18.0228 8.00156 18.4315 7.67084 18.7585 7.15012C19.3486 6.20485 19.7094 4.63096 19.7094 4.63096C19.7433 4.48084 19.7194 4.32134 19.6376 4.19703C19.5579 4.07037 19.4343 4 19.3027 4H15.0524C14.2151 4 13.621 4.56998 13.2163 5.28069C12.7199 6.15559 12.5365 7.2369 12.5106 7.40109C12.5066 7.4269 12.5026 7.45035 12.5026 7.47615C12.5026 7.48554 12.5026 7.49023 12.5026 7.50195V11.5012H12.4946ZM18.3877 16.4996H15.0943C15.2817 17.3604 15.9495 18.0008 16.739 18.0008C17.5304 18.0008 18.1963 17.3604 18.3837 16.4996H18.3877ZM8.2543 13.5113C7.89545 13.19 7.45089 13 6.96645 13C5.79223 13 4.84129 14.1212 4.84129 15.5004C4.84129 16.8796 5.79223 18.0008 6.96645 18.0008C7.99314 18.0008 8.85237 17.14 9.04774 16H6.96645C6.78702 16 6.62953 15.871 6.56574 15.6763C6.50194 15.4816 6.54979 15.2611 6.68535 15.1251L8.2543 13.5113ZM10.7383 14.4402L10.196 12.8405L9.4644 13.5958C9.69366 14.0109 9.85115 14.4918 9.91495 15.0008H10.4413C10.505 14.7897 10.6067 14.595 10.7443 14.4402H10.7383ZM8.81449 14.2596C8.92414 14.4848 9.00588 14.7357 9.04774 14.9961H8.09681L8.81051 14.2596H8.81449ZM12.4907 12.4957H10.9935L11.5078 14.0063C11.5517 14.0063 11.5975 13.9945 11.6454 13.9945C12.2016 13.9945 12.6721 14.4167 12.8475 14.9961H13.1565C12.7319 14.4402 12.4946 13.7154 12.4946 12.9601V12.4957H12.4907Z" fill="white"/>
</svg>
